<svg width="251" height="48" viewBox="0 0 251 48" fill="none" xmlns="http://www.w3.org/2000/svg">
<path d="M250.016 14.4453C250.016 14.4453 250.023 14.4527 250.016 14.4453V14.4453ZM227.817 34.976C230.944 37.7151 235.303 39.1742 239.454 38.9841L241.711 38.8378C243.225 38.6549 245.185 37.9016 246.439 37.0349C246.845 36.7496 247.247 36.4607 247.642 36.1608C247.727 36.0992 247.805 36.0294 247.876 35.9524C249.339 34.4164 250.305 32.4489 250.392 30.3096L250.48 29.633L250.444 28.6383C250.301 25.8443 248.023 23.672 245.521 22.7797L238.511 20.3259C237.645 20.0394 236.871 19.5298 236.265 18.8484C236.093 18.6557 235.945 18.4433 235.823 18.2157C235.168 16.8773 235.695 15.0561 237.216 14.6282C238.938 14.1564 240.858 14.5953 242.307 15.5973L243.473 16.3653C243.473 16.3653 244.099 16.8261 244.329 17.0382L246.648 19.1154L249.997 14.4234C248.019 12.807 246.11 12.0207 244.439 11.7062C242.36 11.2748 240.223 11.1982 238.119 11.4795C238.042 11.4906 237.965 11.5052 237.889 11.5234C235.863 12.0061 233.654 12.8326 232.44 14.6318L231.866 15.4766L231.273 16.5884C230.86 17.9707 230.524 19.4738 230.802 20.9366C231.014 22.0373 231.354 23.1308 232.049 24.0268C232.213 24.2462 232.535 24.7033 232.535 24.7033L233.745 25.7127L236.042 26.9524L240.112 28.3421C240.511 28.4811 240.921 28.5798 241.312 28.7444L243.345 29.5672C244.065 29.8706 244.657 30.4149 245.02 31.1068C245.233 31.5456 245.345 32.0261 245.35 32.5137C245.354 33.0012 245.25 33.4837 245.045 33.9262C244.841 34.3688 244.54 34.7604 244.166 35.0728C243.792 35.3853 243.353 35.6107 242.881 35.733C242.537 35.7988 242.186 35.85 241.835 35.8792C241.73 35.8945 241.624 35.8932 241.52 35.8756C239.004 35.6488 236.561 34.3543 234.78 32.5879C234.568 32.4051 234.334 32.2515 234.133 32.0576L231.679 29.7464L227.817 34.976Z" fill="#768C8C"/>
<path d="M200.543 16.8516C200.69 17.1332 200.818 17.4258 200.924 17.7257L206.501 29.867L209.547 22.6078L207.177 16.8955L204.241 18.4168L203.389 16.1275L212.158 11.3514L220.145 29.6988L225.188 16.8443C225.287 16.6139 225.543 16.2299 225.4 15.9886C225.298 15.8313 224.87 16.1202 224.859 16.1275C224.087 16.5664 222.537 17.4331 222.537 17.4331L221.286 15.2425L228.18 11.5526L229.77 15.056L220.482 38.4391L216.473 38.4208L211.489 26.9889C210.666 29.2088 209.69 31.3591 208.732 33.5241C208.684 33.6045 208.651 33.6959 208.615 33.7837L206.892 38.4647L202.558 38.4611L193.207 17.0491L190.285 18.5229L189.254 16.2007L198.335 11.3514C198.901 13.2494 199.644 15.0889 200.543 16.8516Z" fill="#768C8C"/>
<path d="M130.544 3.7887H133.729L133.736 35.199L130.599 35.21L130.595 38.2161L141.215 38.2087L141.233 35.188L137.788 35.1917L137.818 11.0114L156.681 38.2855L161.197 38.3111L161.226 3.65705L164.393 3.63876L164.404 0.852102L153.609 0.855759L153.601 3.68265L157.204 3.66071L157.2 26.5355L139.16 0.757019L130.555 0.760676L130.544 3.7887Z" fill="#768C8C"/>
<path d="M119.364 13.3299C118.787 14.3356 118.256 15.3669 117.777 16.4201L106.715 40.4468C105.376 43.3688 103.526 46.3603 100.355 47.5049C98.5412 48.1486 96.5371 48.1998 94.7415 47.4501C94.4453 47.344 93.798 47.0332 93.798 47.0332C93.798 47.0332 93.9114 46.4956 93.9736 46.2506L95.1694 41.021C96.208 41.5001 97.3563 41.6719 98.49 41.7158C98.7314 41.6975 98.9764 41.6646 99.2178 41.6537C100.67 41.6171 102.059 40.8711 102.897 39.6789L104.041 38.0661L94.6026 16.9869L91.4612 18.3693L90.5469 16.197L99.8797 11.4977L106.762 27.5265C107.018 28.2031 107.274 29.0223 107.676 29.633C107.991 30.1084 108.243 29.0223 108.243 29.0223L114.811 14.5367C113.772 14.9697 112.757 15.4567 111.769 15.9959C111.263 15.1914 110.786 14.3692 110.339 13.531L117.624 10.0788L119.364 13.3299Z" fill="#768C8C"/>
<path d="M79.0162 38.216L91.8415 38.2197L91.8305 35.7805L88.9853 35.7951L88.9671 3.29865L91.4758 2.40633L91.4685 0L79.0894 4.26411V6.50953L81.7773 5.61721L81.7993 35.8975L79.0199 35.8829L79.0162 38.216ZM64.1211 17.1259L67.0468 16.1385L67.0358 35.8719H64.2418L64.2455 38.1685L77.0634 38.1575L77.0561 35.7951H74.3206L74.3316 11.4282L64.8306 14.3978L64.1431 14.5843L64.1394 15.3742L64.1211 17.1259Z" fill="#768C8C"/>
<path d="M73.8782 2.8854C74.1578 3.58345 74.2623 4.33932 74.1826 5.08705C74.103 5.83479 73.8415 6.55166 73.421 7.17511C73.2601 7.44207 72.7628 7.88092 72.7628 7.88092C72.7628 7.88092 72.302 8.15519 72.0387 8.26856C70.3711 8.99265 68.1915 8.68912 66.9737 7.26288C66.8302 7.09739 66.7029 6.91861 66.5934 6.72895C66.2222 6.08884 66.0285 5.36128 66.0323 4.62134C66.0362 3.8814 66.2374 3.1559 66.6153 2.5197C67.248 1.46281 68.3597 0.731406 69.5812 0.559525C71.0696 0.270619 72.6384 0.914258 73.4978 2.16862C73.6441 2.3917 73.7758 2.63307 73.8782 2.8854ZM188.556 31.3116L187.766 30.5363L186.453 31.7321L185.016 32.7817C182.858 34.0872 180.166 34.4054 177.712 33.8276C177.316 33.7269 176.929 33.5911 176.557 33.4217C175.279 32.8359 174.139 31.9878 173.21 30.9324C172.281 29.8771 171.585 28.6382 171.166 27.2961L188.497 27.3034L188.534 23.5257C188.435 19.3128 186.676 14.7086 182.766 12.646C182.134 12.2913 180.748 11.8634 180.748 11.8634L179.881 11.6001C179.881 11.6001 179.395 11.4721 178.224 11.4173C177.054 11.3624 176.07 11.4026 176.07 11.4026C176.07 11.4026 174.951 11.4648 174.622 11.5233C172.603 11.7797 170.693 12.5855 169.1 13.8529C167.937 14.7488 166.855 15.7143 166.094 16.9869C165.465 18.0219 164.803 19.0239 164.441 20.1905C164.324 20.5599 164.24 20.9036 164.123 21.273C163.338 23.8152 163.248 26.5214 163.863 29.11C164.451 31.4992 165.71 33.6703 167.492 35.3668C169.275 37.0634 171.505 38.2144 173.92 38.6841C174.246 38.7463 174.578 38.7975 174.908 38.856C176.089 39.0499 177.102 38.9548 178.243 38.8926C179.66 38.8114 181.059 38.5243 182.393 38.0405L184.259 37.1994L186.014 36.084H186.01C186.01 36.084 188.007 34.6907 189.517 32.3538C189.539 32.3319 188.556 31.3116 188.556 31.3116ZM169.901 22.7321L169.846 21.5473L169.952 20.6293C170.771 17.3746 172.165 15.9374 174.023 15.1072C174.78 14.7671 175.727 14.6903 175.727 14.6903C175.727 14.6903 176.407 14.6135 176.758 14.5989C177.762 14.5865 178.754 14.8248 179.643 15.2923C180.531 15.7597 181.29 16.4415 181.849 17.2758C182.331 18.0255 182.686 18.8557 182.894 19.7187C183.293 21.2145 183.483 22.8089 183.392 24.3559L170.281 24.3449L169.901 22.7321ZM59.1111 35.8719L59.133 19.0129C59.122 18.0694 58.8807 17.1917 58.643 16.2958C58.2443 14.7269 57.0814 13.3482 55.6917 12.551C55.3912 12.3773 55.0797 12.2234 54.7592 12.0902L53.7608 11.783C53.7608 11.783 52.7551 11.527 52.4187 11.5087C49.6978 11.377 46.9002 11.8598 44.4902 13.169C44.3586 13.2458 44.1062 13.4506 43.9563 13.4652C43.4187 13.5164 43.9343 12.1231 43.9343 12.1231C43.9343 12.1231 43.2029 11.9293 43.1554 11.8927L41.144 11.4465L39.1839 18.7094L41.3049 19.247C41.5426 19.3128 41.8169 19.3604 41.8169 19.3604C41.8169 19.3604 42.8153 17.6196 43.2359 17.1734L43.9746 16.4384C44.9986 15.4583 46.3882 15.0487 47.8035 15.0341C49.3431 15.0341 50.8132 15.7947 51.4093 17.2685C51.8994 18.4827 52.1115 19.8065 52.0164 21.1157L48.5971 21.2145C48.1802 21.2254 47.7596 21.2437 47.3391 21.262C47.2645 21.2661 47.1902 21.2722 47.116 21.2803L43.938 21.7594C43.2503 21.8664 42.5784 22.0581 41.9376 22.3299C41.645 22.4506 41.3598 22.5859 41.0636 22.6919C40.2298 23.0028 39.4545 23.4599 38.7999 24.0341C35.2855 27.0694 35.1172 32.6976 37.86 36.2522C38.0721 36.5302 38.3135 36.7861 38.5914 37.0019C40.0323 38.0881 41.7621 38.7683 43.5577 38.9548L44.6072 38.9877C46.1717 39.1698 47.7562 38.9221 49.1905 38.2714C50.6247 37.6206 51.8546 36.5913 52.7478 35.2941L53.3951 38.1502L61.5978 38.1319L61.6052 35.8536L59.1111 35.8719ZM52.031 30.8581C52.0105 31.534 51.7837 32.1874 51.381 32.7307C50.9783 33.2739 50.419 33.6809 49.7783 33.8971C48.5546 34.2768 47.2498 34.311 46.0079 33.9958C45.5815 33.867 45.1917 33.6389 44.8706 33.3302C44.0372 32.5764 43.4949 31.5539 43.3382 30.4412C43.1878 29.6031 43.1706 28.7466 43.2871 27.9032C43.6235 26.0491 45.09 24.5351 46.9295 24.1474C47.6792 24.0304 48.4288 23.9463 49.1859 23.8914H49.3358L52.1151 24.0267C52.1115 24.0267 52.0969 28.5834 52.031 30.8581ZM35.9328 18.34L35.8998 17.967C35.8998 17.967 35.7097 16.6212 35.5634 15.8715C35.5634 15.8715 35.3732 14.4709 34.8027 12.7557C34.2322 11.0406 33.4862 9.84474 33.4862 9.84474C33.2195 9.35936 32.9201 8.89263 32.5902 8.44776L31.7089 7.25922C28.988 3.76675 24.6544 1.66761 20.3026 1.14465L17.7426 0.863059L0.27297 0.899629L0.280284 3.91303L3.50579 3.92766L3.47288 35.305C3.46922 35.3343 0.112061 35.3014 0.112061 35.3014L0.130346 38.2636L13.1421 38.2965C17.1868 38.3514 21.2059 37.9637 25.075 36.7349C25.4261 36.6252 25.7954 36.5082 26.1282 36.3436L26.8121 36.0438C29.6463 34.6541 32.0782 32.522 33.6215 29.761L34.3895 28.3786L34.4005 28.3567C35.7097 25.1933 36.1668 21.7374 35.9328 18.34ZM27.6678 21.4302C27.6093 21.9208 27.5727 22.4138 27.5581 22.9077C27.3816 25.876 26.3714 28.7343 24.6435 31.1543L24.1388 31.7248C21.93 34.1055 18.7739 35.2831 15.5667 35.2612L11.16 35.305L11.1819 3.83989L16.3237 3.8472C18.5801 4.09588 20.7487 4.9626 22.5224 6.37787C25.4736 8.74763 26.984 12.4449 27.474 16.1129C27.5289 16.5262 27.5325 16.9467 27.5947 17.3563C27.7849 18.7057 27.8324 20.0808 27.6678 21.4302Z" fill="#768C8C"/>
</svg>
