<svg width="114" height="48" viewBox="0 0 114 48" fill="none" xmlns="http://www.w3.org/2000/svg">
<path fill-rule="evenodd" clip-rule="evenodd" d="M26.649 26.0693H24.0395C24.0395 26.0693 21.5147 26.2373 21.5147 24.0491C21.5147 21.4403 24.0395 21.6922 24.0395 21.6922H26.5643C26.5643 21.6922 27.4061 12.7708 37.8426 12.7708C41.8522 12.7708 44.8604 14.1666 47.0538 15.9752C43.7519 6.66718 34.8728 0 24.4332 0C11.1777 0 0.432861 10.7448 0.432861 23.999C0.432861 37.2545 11.1777 48 24.4332 48C34.1035 48 42.4325 42.2772 46.2325 34.0367C44.395 35.2112 41.9933 36.0011 38.8524 36.0011C27.4061 36.0011 26.649 26.0693 26.649 26.0693Z" fill="#768C8C"/>
<path fill-rule="evenodd" clip-rule="evenodd" d="M38.0952 17.5684C32.709 17.5684 33.1296 22.7873 33.1296 22.7873H42.5562C42.5562 22.7866 42.8922 17.5684 38.0952 17.5684ZM34.2233 26.1533C34.2233 26.1533 34.3913 31.2875 40.704 31.2875C47.0166 31.2875 47.8578 26.1533 47.8578 26.1533H34.2233ZM60.0862 6.80695L53.6504 10.2101V30.3213C53.6504 30.3213 53.5882 32.1165 55.754 34.0341C57.9191 35.953 59.5899 36.0755 60.7042 36.0755C63.7984 36.0755 65.4076 34.5913 65.4076 34.5913V30.6931C65.4076 30.6931 64.6639 31.6215 62.6853 31.6215C60.0246 31.6215 60.0246 29.2076 60.0246 29.2076V19.6162H64.7883V15.3462H60.0246L60.0862 6.80695ZM80.9045 15.3533C74.5695 15.3533 69.4327 19.8765 69.4327 25.4557C69.4327 31.0362 74.5695 35.5587 80.9045 35.5587C87.2396 35.5587 92.3751 31.0362 92.3751 25.4557C92.3745 19.8765 87.239 15.3533 80.9045 15.3533ZM80.684 32.1178C77.7841 32.1178 75.4337 29.0954 75.4337 25.3679C75.4337 21.6403 77.7841 18.6186 80.684 18.6186C83.5838 18.6186 85.9342 21.6403 85.9342 25.3679C85.9342 29.0954 83.5838 32.1178 80.684 32.1178ZM111.523 16.3233L105.17 15.3527C105.17 15.3527 96.0809 14.3813 96.0809 21.4409C96.0809 28.5005 105.965 26.2071 105.965 30.0879C105.965 33.5289 101.993 32.4704 101.993 32.4704L97.4048 30.6175L96.0815 34.3233L102.876 35.8222C102.876 35.8222 113.112 37.3238 113.112 29.6462C113.112 21.9698 103.406 23.5579 103.406 20.6459C103.406 17.7338 106.669 18.6167 106.669 18.6167L110.553 19.4983L111.523 16.3233Z" fill="#768C8C"/>
</svg>
