<svg width="166" height="48" viewBox="0 0 166 48" fill="none" xmlns="http://www.w3.org/2000/svg">
<path fill-rule="evenodd" clip-rule="evenodd" d="M23.9918 13.7986C21.2577 13.7986 18.9169 14.7811 16.9862 16.755C15.0468 18.728 14.0819 21.1208 14.0819 23.9317C14.0819 25.82 14.5255 27.546 15.4057 29.1186C16.2948 30.6894 17.4987 31.9286 19.0289 32.8344C20.5258 33.7384 22.2431 34.2118 23.9918 34.2023C26.6492 34.2023 28.938 33.2013 30.8439 31.2036C32.749 29.1953 33.7068 26.7778 33.7068 23.9325C33.7068 22.1042 33.2711 20.4117 32.3988 18.8576C31.5186 17.3027 30.3403 16.0723 28.8453 15.1665C27.3873 14.2655 25.7058 13.7916 23.9918 13.7986ZM23.9918 0C28.1697 0 32.0487 1.08484 35.6454 3.24745C39.2342 5.4083 42.0883 8.33119 44.2068 12.0126C46.3174 15.7045 47.3766 19.6682 47.3766 23.9317C47.3766 28.2384 46.3165 32.2452 44.2068 35.9433C42.0883 39.6432 39.2342 42.5741 35.6454 44.7446C32.0487 46.9134 28.1697 48 23.9918 48C19.7627 48 15.8414 46.9134 12.2271 44.7446C8.6136 42.5741 5.75069 39.6353 3.641 35.9354C1.53042 32.2284 0.47998 28.2304 0.47998 23.9325C0.47998 19.6858 1.5313 15.7125 3.641 12.0232C5.75158 8.34001 8.61448 5.40918 12.2271 3.24833C15.8405 1.08483 19.7627 0 23.9918 0ZM63.7806 1.2383V35.4141H78.193V46.7591H50.1099V1.2383H63.7806ZM118.171 12.585H105.739C102.125 12.585 99.357 13.7633 97.4255 16.1217C95.4948 18.4801 94.5299 21.3175 94.5299 24.6152C94.5767 26.6384 95.0574 28.628 95.9393 30.4495C96.8013 32.2381 98.1332 33.7588 99.7927 34.8488C101.476 35.9601 103.458 36.5166 105.739 36.5166C108.32 36.5166 110.736 35.9777 112.993 34.9097C115.24 33.8416 116.966 32.329 118.171 30.3569V43.0098C115.582 45.9662 111.388 47.4435 105.603 47.4435C101.681 47.4435 98.1699 46.8543 95.0847 45.6742C92.0013 44.4959 89.4039 42.8131 87.3021 40.6337C85.2004 38.4543 83.6101 35.8657 82.5341 32.8599C81.466 29.8524 80.9271 26.5617 80.9271 22.9835C80.9271 20.1629 81.3972 17.4641 82.3286 14.8667C83.26 12.2692 84.695 9.94521 86.6265 7.88579C88.5572 5.83518 91.0002 4.21146 93.9646 3.02431C96.9307 1.83717 100.381 1.23918 104.304 1.23918H118.171L118.171 12.585ZM106.824 18.3267H118.171V29.6733H106.824V18.3267ZM135.616 1.2383H150.236L165.486 46.7591H120.913L129.721 18.3258H141.205L136.631 36.2335H148.662L135.616 1.2383Z" fill="#768C8C"/>
</svg>
