<svg width="169" height="48" viewBox="0 0 169 48" fill="none" xmlns="http://www.w3.org/2000/svg">
<path fill-rule="evenodd" clip-rule="evenodd" d="M48.6143 21.941C48.6143 11.4727 41.8415 3.46741 24.0158 3.46741C11.0845 3.46741 0 7.77816 0 23.1725C0 33.6408 6.15753 41.6451 24.0158 41.6451C37.5317 41.646 48.6143 37.3362 48.6143 21.941Z" fill="#768C8C"/>
<path fill-rule="evenodd" clip-rule="evenodd" d="M46.6056 35.3917V16.9181C46.6056 8.07044 41.4198 6.09332 32.7993 6.09332C22.9788 6.09332 20.3864 10.7606 20.3864 12.9639C20.3864 15.0704 22.2342 15.4269 23.9516 15.4269C29.1047 15.4269 28.7482 11.3749 33.4155 11.3749C35.7817 11.3749 37.7263 12.9629 37.7263 15.4269C37.7263 16.7878 36.4947 18.4084 32.4437 18.8943C22.4613 20.2552 18.0538 24.4365 18.0538 29.9778C18.0538 35.3898 21.7483 39.3114 28.6189 39.3114C32.7993 39.3114 34.7764 37.3678 37.6285 37.3678C39.2165 37.3678 40.448 38.469 43.0404 38.469C45.1153 38.4709 46.6056 37.8547 46.6056 35.3917ZM27.0308 29.1038C27.0308 25.668 32.184 23.9506 34.7764 23.9506C37.0123 23.9506 37.8556 25.2799 37.8556 26.8996C37.8556 30.0756 34.647 33.058 31.471 33.058C28.7482 33.058 27.0308 31.2103 27.0308 29.1038Z" fill="#768C8C"/>
<path fill-rule="evenodd" clip-rule="evenodd" d="M62.0978 12.9965C60.8337 12.9965 59.8283 11.0519 56.5555 11.0519C53.3795 11.0519 52.537 12.5096 52.537 15.1356V34.8732C52.537 37.5959 53.6066 39.0862 55.6153 39.0862H57.7218C59.9251 39.0862 60.963 37.6927 60.963 35.0678V24.2104C60.963 21.7799 62.3565 19.8996 65.0783 19.0572C67.9304 18.2148 68.5783 17.1453 68.5783 14.6171C68.5783 12.6074 67.7359 11.5704 65.9207 11.5704C64.3662 11.5704 63.6858 12.9965 62.0978 12.9965ZM85.3037 11.8301C81.4789 11.8301 80.7659 13.0942 78.6584 13.0942C77.1672 13.0942 76.0986 12.0247 74.1857 12.0247C71.9814 12.0247 70.9445 13.0942 70.9445 15.1039V44.4023C70.9445 46.8327 71.6575 48 74.4128 48C77.3617 48 77.8802 46.8327 77.8802 42.8143C77.8802 39.5414 79.0465 38.6013 80.7323 38.6013C81.2508 38.6013 83.3573 39.3469 85.5932 39.3469C92.8538 39.3469 96.8732 33.9666 96.8732 24.8918C96.8732 16.691 92.2385 11.8301 85.3037 11.8301ZM77.7844 25.4419C77.7844 19.7377 80.5387 16.3671 84.1039 16.3671C88.0255 16.3671 90.132 20.1593 90.132 24.8908C90.132 26.9973 89.7113 34.3873 83.9103 34.3873C80.3116 34.3873 77.7844 30.6918 77.7844 25.4419ZM123.287 36.2993V20.4833C123.287 12.8671 118.847 11.1813 111.457 11.1813C103.03 11.1813 100.826 15.2007 100.826 17.1127C100.826 18.8953 102.415 19.2192 103.874 19.2192C108.314 19.2192 107.99 15.7183 112.009 15.7183C113.985 15.7183 115.67 17.1127 115.67 19.2192C115.67 20.3529 114.633 21.7474 111.166 22.1681C102.61 23.3028 98.8177 26.8996 98.8177 31.632C98.8177 36.2993 101.994 39.6699 107.893 39.6699C111.457 39.6699 113.143 37.9841 115.573 37.9841C116.934 37.9841 118.004 38.9242 120.208 38.9242C122.023 38.9242 123.287 38.4048 123.287 36.2993ZM106.498 30.919C106.498 27.9701 110.938 26.4788 113.143 26.4788C115.054 26.4788 115.799 27.6461 115.799 29.007C115.799 31.7623 113.046 34.2905 110.322 34.2905C107.99 34.2896 106.498 32.7015 106.498 30.919ZM131.811 11.0519H129.898C128.018 11.0519 126.755 12.5096 126.755 14.8433V34.5493C126.755 37.5959 127.371 39.184 130.968 39.184C133.819 39.184 135.181 37.9199 135.181 35.3917V15.6866C135.182 12.6074 134.014 11.0519 131.811 11.0519ZM162.274 36.2993V20.4833C162.274 12.8671 157.834 11.1813 150.478 11.1813C142.019 11.1813 139.814 15.2007 139.814 17.1127C139.814 18.8953 141.403 19.2192 142.862 19.2192C147.302 19.2192 146.978 15.7183 150.996 15.7183C153.005 15.7183 154.691 17.1127 154.691 19.2192C154.691 20.3529 153.62 21.7474 150.154 22.1681C141.597 23.3028 137.805 26.8996 137.805 31.632C137.805 36.2993 140.981 39.6699 146.88 39.6699C150.478 39.6699 152.163 37.9841 154.562 37.9841C155.955 37.9841 156.992 38.9242 159.229 38.9242C161.011 38.9242 162.274 38.4048 162.274 36.2993ZM145.52 30.919C145.52 27.9701 149.929 26.4788 152.164 26.4788C154.043 26.4788 154.789 27.6461 154.789 29.007C154.789 31.7623 152.034 34.2905 149.31 34.2905C146.978 34.2896 145.52 32.7015 145.52 30.919Z" fill="#768C8C"/>
<path fill-rule="evenodd" clip-rule="evenodd" d="M136.088 3.85649C136.088 1.68482 134.662 0 130.935 0C128.244 0 125.913 0.907576 125.913 4.11524C125.913 6.3195 127.208 7.97173 130.935 7.97173C133.755 7.97269 136.088 7.06511 136.088 3.85649Z" fill="#768C8C"/>
<path fill-rule="evenodd" clip-rule="evenodd" d="M165.483 5.96394C166.035 5.96394 166.52 6.09332 166.975 6.35304C167.428 6.64439 167.786 7.0009 168.044 7.45421C168.303 7.87494 168.433 8.39437 168.433 8.94544C168.433 9.52813 168.303 10.0476 168.044 10.5009C167.785 10.9551 167.427 11.3117 166.975 11.5704C166.521 11.8313 166.006 11.9657 165.483 11.9595C164.95 11.9656 164.425 11.8314 163.961 11.5704C163.506 11.3107 163.183 10.9542 162.89 10.5009C162.632 10.0476 162.501 9.52813 162.501 8.94544C162.501 8.39437 162.633 7.87589 162.89 7.45421C163.183 6.99994 163.507 6.64343 163.961 6.35304C164.425 6.09204 164.95 5.95785 165.483 5.96394ZM165.483 6.41725C165.03 6.41725 164.609 6.54663 164.251 6.77377C163.892 6.99263 163.601 7.30678 163.409 7.68134C163.183 8.07044 163.085 8.49117 163.053 8.94544C163.085 9.69105 163.312 10.3063 163.766 10.7606C163.984 10.9992 164.249 11.1889 164.545 11.3173C164.841 11.4456 165.16 11.5097 165.483 11.5052C165.938 11.5052 166.327 11.4084 166.714 11.1813C167.072 10.9551 167.364 10.6303 167.559 10.2747C167.785 9.8856 167.883 9.46392 167.883 8.97802C167.883 8.23241 167.623 7.64972 167.201 7.16287C166.748 6.67697 166.164 6.44984 165.483 6.41725ZM164.9 9.26937V10.6954H164.382V7.35742C164.511 7.32483 164.64 7.32483 164.802 7.29321H165.321C165.839 7.29321 166.163 7.35742 166.358 7.52034C166.463 7.6061 166.547 7.71512 166.604 7.83883C166.66 7.96253 166.687 8.09758 166.682 8.23337C166.682 8.4605 166.617 8.62247 166.487 8.75185C166.35 8.88554 166.184 8.98561 166.002 9.04415V9.07673C166.326 9.10932 166.519 9.40066 166.584 9.88656C166.616 10.1463 166.649 10.3408 166.682 10.4376C166.728 10.5184 166.761 10.6061 166.78 10.6973H166.229C166.164 10.5996 166.067 10.3082 166.003 9.85493C165.938 9.43325 165.711 9.2387 165.29 9.27224H164.9V9.26937ZM164.9 7.71393V8.84864H165.289C165.515 8.84864 165.71 8.81606 165.871 8.71926C166.034 8.62247 166.097 8.49213 166.097 8.26499C166.099 8.19245 166.086 8.12028 166.058 8.05322C166.031 7.98616 165.989 7.92573 165.936 7.8759C165.807 7.74652 165.579 7.68134 165.288 7.68134C165.127 7.68134 164.998 7.71393 164.9 7.71393Z" fill="#768C8C"/>
</svg>
