<svg width="48" height="20" viewBox="0 0 48 20" fill="none" xmlns="http://www.w3.org/2000/svg">
<path d="M6.104 19.11C5.56133 19.11 5.17267 18.9927 4.938 18.758C4.70333 18.5087 4.586 18.0467 4.586 17.372C4.586 16.9173 4.63 16.3673 4.718 15.722C4.806 15.0767 4.96 14.1013 5.18 12.796C5.20933 12.62 5.32667 11.9087 5.532 10.662C5.73733 9.40067 5.92067 8.08067 6.082 6.702C6.22867 5.52867 6.302 4.64867 6.302 4.062C6.302 3.402 6.06 3.072 5.576 3.072C5.20933 3.072 4.74733 3.27 4.19 3.666C3.64733 4.04733 3.06067 4.66333 2.43 5.514C2.22467 5.79267 1.99733 5.932 1.748 5.932C1.54267 5.932 1.35933 5.83667 1.198 5.646C1.05133 5.44067 0.978 5.21333 0.978 4.964C0.978 4.71467 1.022 4.48 1.11 4.26C1.198 4.02533 1.35933 3.74667 1.594 3.424C2.31267 2.44133 3.112 1.686 3.992 1.158C4.872 0.615332 5.796 0.343999 6.764 0.343999C7.57067 0.343999 8.172 0.593333 8.568 1.092C8.97867 1.59067 9.184 2.31667 9.184 3.27C9.184 4.12067 9.06667 5.35267 8.832 6.966C9.56533 4.79533 10.4967 3.15267 11.626 2.038C12.7553 0.908666 14.0827 0.343999 15.608 0.343999C16.8107 0.343999 17.7127 0.688666 18.314 1.378C18.93 2.05267 19.238 2.962 19.238 4.106C19.238 4.75133 19.1427 5.536 18.952 6.46L17.61 12.752C17.4633 13.4853 17.39 14.116 17.39 14.644C17.39 15.26 17.5293 15.722 17.808 16.03C18.1013 16.338 18.5047 16.492 19.018 16.492C19.502 16.492 19.9713 16.3307 20.426 16.008C20.8953 15.6853 21.4453 15.15 22.076 14.402C22.252 14.1967 22.45 14.094 22.67 14.094C22.8607 14.094 23.0073 14.182 23.11 14.358C23.2273 14.534 23.286 14.776 23.286 15.084C23.286 15.656 23.1467 16.1107 22.868 16.448C22.1053 17.372 21.35 18.0467 20.602 18.472C19.854 18.8973 19.0693 19.11 18.248 19.11C17.0013 19.11 16.026 18.7433 15.322 18.01C14.618 17.262 14.266 16.2647 14.266 15.018C14.266 14.534 14.3027 14.006 14.376 13.434C14.464 12.862 14.6033 12.136 14.794 11.256L15.674 7.23C15.7033 7.098 15.7547 6.86333 15.828 6.526C15.9013 6.18867 15.96 5.87333 16.004 5.58C16.048 5.272 16.07 4.97133 16.07 4.678C16.07 4.20867 15.938 3.83467 15.674 3.556C15.41 3.27733 15.036 3.138 14.552 3.138C13.672 3.138 12.792 3.60733 11.912 4.546C11.032 5.48467 10.218 7.00267 9.47 9.1C8.722 11.1827 8.13533 13.852 7.71 17.108C7.60733 17.856 7.45333 18.3767 7.248 18.67C7.05733 18.9633 6.676 19.11 6.104 19.11ZM32.7194 12.246C32.91 12.246 33.0567 12.3413 33.1594 12.532C33.262 12.7227 33.3134 12.9647 33.3134 13.258C33.3134 13.962 33.1007 14.38 32.6754 14.512C31.7954 14.82 30.8274 14.996 29.7714 15.04C29.4927 16.272 28.9427 17.262 28.1214 18.01C27.3 18.7433 26.3687 19.11 25.3274 19.11C24.4474 19.11 23.692 18.8973 23.0614 18.472C22.4454 18.0467 21.976 17.482 21.6534 16.778C21.3307 16.074 21.1694 15.3113 21.1694 14.49C21.1694 13.3753 21.382 12.3853 21.8074 11.52C22.2327 10.64 22.8194 9.958 23.5674 9.474C24.3154 8.97533 25.144 8.726 26.0534 8.726C27.168 8.726 28.0627 9.11467 28.7374 9.892C29.4267 10.6547 29.83 11.6007 29.9474 12.73C30.6367 12.686 31.458 12.5393 32.4114 12.29C32.5287 12.2607 32.6314 12.246 32.7194 12.246ZM25.5034 16.778C25.9727 16.778 26.376 16.5873 26.7134 16.206C27.0654 15.8247 27.3 15.2747 27.4174 14.556C26.9627 14.248 26.6107 13.8447 26.3614 13.346C26.1267 12.8473 26.0094 12.3193 26.0094 11.762C26.0094 11.5273 26.0314 11.2927 26.0754 11.058H25.9654C25.3787 11.058 24.8874 11.344 24.4914 11.916C24.11 12.4733 23.9194 13.2653 23.9194 14.292C23.9194 15.0987 24.0734 15.7147 24.3814 16.14C24.704 16.5653 25.078 16.778 25.5034 16.778ZM32.9871 19.11C32.4298 19.11 32.0338 18.8167 31.7991 18.23C31.5791 17.6433 31.4691 16.7047 31.4691 15.414C31.4691 13.5073 31.7405 11.696 32.2831 9.98C32.4151 9.55467 32.6278 9.24667 32.9211 9.056C33.2291 8.85067 33.6545 8.748 34.1971 8.748C34.4905 8.748 34.6958 8.78467 34.8131 8.858C34.9305 8.93133 34.9891 9.07067 34.9891 9.276C34.9891 9.51067 34.8791 10.0387 34.6591 10.86C34.5125 11.4467 34.3951 11.96 34.3071 12.4C34.2191 12.84 34.1458 13.3827 34.0871 14.028C34.5711 12.7667 35.1138 11.74 35.7151 10.948C36.3165 10.156 36.9031 9.59133 37.4751 9.254C38.0618 8.91667 38.5971 8.748 39.0811 8.748C40.0345 8.748 40.5111 9.22467 40.5111 10.178C40.5111 10.75 40.3498 11.784 40.0271 13.28C39.7485 14.556 39.6091 15.3993 39.6091 15.81C39.6091 16.3967 39.8218 16.69 40.2471 16.69C40.5405 16.69 40.8851 16.514 41.2811 16.162C41.6918 15.7953 42.2345 15.2087 42.9091 14.402C43.0851 14.1967 43.2831 14.094 43.5031 14.094C43.6938 14.094 43.8405 14.182 43.9431 14.358C44.0605 14.534 44.1191 14.776 44.1191 15.084C44.1191 15.6707 43.9798 16.1253 43.7011 16.448C43.0705 17.2253 42.3885 17.8633 41.6551 18.362C40.9365 18.8607 40.1151 19.11 39.1911 19.11C38.4431 19.11 37.8785 18.8973 37.4971 18.472C37.1158 18.032 36.9251 17.4013 36.9251 16.58C36.9251 16.1693 37.0278 15.436 37.2331 14.38C37.4238 13.456 37.5191 12.818 37.5191 12.466C37.5191 12.2313 37.4385 12.114 37.2771 12.114C37.0865 12.114 36.8151 12.3633 36.4631 12.862C36.1258 13.346 35.7738 13.9913 35.4071 14.798C35.0551 15.6047 34.7691 16.4553 34.5491 17.35C34.3878 18.0393 34.1971 18.5087 33.9771 18.758C33.7718 18.9927 33.4418 19.11 32.9871 19.11ZM45.3752 7.296C44.7592 7.296 44.2972 7.15667 43.9892 6.878C43.6812 6.58467 43.5272 6.18133 43.5272 5.668C43.5272 5.15467 43.7252 4.72933 44.1212 4.392C44.5319 4.04 45.0379 3.864 45.6392 3.864C46.1819 3.864 46.6219 3.996 46.9592 4.26C47.2965 4.524 47.4652 4.898 47.4652 5.382C47.4652 5.96867 47.2745 6.438 46.8932 6.79C46.5119 7.12733 46.0059 7.296 45.3752 7.296ZM43.2632 19.11C42.7939 19.11 42.4712 19.0147 42.2952 18.824C42.1192 18.6333 42.0312 18.3327 42.0312 17.922C42.0312 17.8047 42.0459 17.5993 42.0752 17.306C42.3099 14.622 42.6985 12.18 43.2412 9.98C43.3585 9.52533 43.5492 9.21 43.8132 9.034C44.0919 8.84333 44.5319 8.748 45.1332 8.748C45.7639 8.748 46.0792 9.00467 46.0792 9.518C46.0792 9.59133 46.0645 9.73067 46.0352 9.936C45.3752 13.0747 44.9792 15.7073 44.8472 17.834C44.8179 18.3033 44.6785 18.6333 44.4292 18.824C44.1799 19.0147 43.7912 19.11 43.2632 19.11Z" fill="#3D6177"/>
</svg>
